<svg id="Group_2" data-name="Group 2" xmlns="http://www.w3.org/2000/svg" xmlns:xlink="http://www.w3.org/1999/xlink" width="379.681" height="223.238" viewBox="0 0 379.681 223.238">
  <defs>
    <clipPath id="clip-path">
      <rect id="Rectangle_1" data-name="Rectangle 1" width="54.415" height="68" transform="translate(119.415 68) rotate(180)" fill="#fff"/>
    </clipPath>
  </defs>
  <path id="Path_1" data-name="Path 1" d="M289.985,89.281c5.528,4.517,14.125,5.661,20.968,3.627a30.1,30.1,0,0,1,38.655,28.832c0,6.941,3.337,14.6,9.189,18.328a45.117,45.117,0,0,1-20.393,83.01.081.081,0,0,0-.075.08.08.08,0,0,1-.08.08H45.731a.62.62,0,0,1-.621-.62.627.627,0,0,0-.5-.611A56.395,56.395,0,0,1,56.388,110.462a1.124,1.124,0,0,0,1.091-1.368,45.15,45.15,0,0,1,51.649-54.378,15.536,15.536,0,0,0,14.69-5.293A67.686,67.686,0,0,1,240.243,68.4c2.885,7.879,12.858,12.9,21.215,12.148q1.762-.158,3.567-.159A39.308,39.308,0,0,1,289.985,89.281Z" fill="#fff" fill-rule="evenodd"/>
  <g id="Group_1" data-name="Group 1" clip-path="url(#clip-path)">
    <path id="Path_2" data-name="Path 2" d="M108.589,16.746a10.823,10.823,0,0,1,10.826,10.823V56.817H90.167A10.826,10.826,0,0,1,79.34,45.991V16.746Z" fill="#fed983"/>
    <path id="Path_3" data-name="Path 3" d="M104.948,35.563a17.906,17.906,0,0,1-.233,6.586,10.852,10.852,0,0,1-2.515,5.235c-1.369,1.4-3.507,2.138-5.115.73a5.827,5.827,0,0,1-1.418-2.208,21.491,21.491,0,0,1-1-3.044A22.161,22.161,0,0,1,94.1,35.6c.074-.861,1.429-.868,1.351,0a20.935,20.935,0,0,0,.243,5.634,15.764,15.764,0,0,0,1.665,5.076,2.216,2.216,0,0,0,1.51,1.221,2.866,2.866,0,0,0,2.173-.914,8.753,8.753,0,0,0,2.226-4.272,16.182,16.182,0,0,0,.37-6.427.7.7,0,0,1,.473-.833.681.681,0,0,1,.832.473Z" fill="#f96"/>
    <path id="Path_4" data-name="Path 4" d="M103.936,35.848a92.672,92.672,0,0,0-9.285-.159c-.871.028-.868-1.323,0-1.351a92.654,92.654,0,0,1,9.285.159C104.8,34.557,104.807,35.909,103.936,35.848Z" fill="#f96"/>
    <path id="Path_5" data-name="Path 5" d="M108.462,29.979a14.691,14.691,0,0,0-.286-2.11c-.078-.374-.452-2.508-1.037-2.48s-.822,1.993-.889,2.374a14.952,14.952,0,0,0-.205,2.215,1,1,0,0,1-1.989,0c.042-1.961.292-6.576,3.083-6.579s3.189,4.593,3.309,6.579c.077,1.277-1.912,1.274-1.99,0Z" fill="#f96"/>
    <path id="Path_6" data-name="Path 6" d="M89.839,29.979c.123-1.986.533-6.579,3.309-6.579s3.041,4.614,3.083,6.579a1,1,0,0,1-1.99,0,15.068,15.068,0,0,0-.187-2.11c-.063-.392-.328-2.452-.907-2.48s-.935,2.007-1.016,2.374a15.084,15.084,0,0,0-.307,2.215c-.078,1.27-2.067,1.281-1.99,0Z" fill="#f96"/>
    <path id="Path_7" data-name="Path 7" d="M115.8,38.166a44.881,44.881,0,0,0-2.2-4.24l1.273-.166a33.527,33.527,0,0,1-1.8,6.773.7.7,0,0,1-1.164.307,6.822,6.822,0,0,1-1.2-2.889l-1.259-3.965c-.272-.857,1.072-1.221,1.344-.37q.513,1.609,1.023,3.221c.254.8.476,2.413,1.076,3.02l-1.164.307a33.332,33.332,0,0,0,1.8-6.773c.1-.617.992-.642,1.274-.166A45.837,45.837,0,0,1,117,37.464C117.366,38.272,116.166,38.981,115.8,38.166Z" fill="#f96"/>
    <path id="Path_8" data-name="Path 8" d="M89.846,38.784A34.172,34.172,0,0,0,87.878,34.4l1.273-.166a37.625,37.625,0,0,0-1.2,4.7c-.18.677-.459,1.524-1.348,1.337-1-.212-1.365-1.912-1.7-2.667l-2.318-5.217c-.36-.811.84-1.52,1.2-.7q.73,1.646,1.464,3.295a17.3,17.3,0,0,1,1.464,3.295l.243.55c-.54.437-.653.349-.346-.261a7,7,0,0,1,.342-1.591,16.656,16.656,0,0,1,.857-3.111.708.708,0,0,1,1.273-.166,37.127,37.127,0,0,1,2.11,4.717c.31.843-1.037,1.206-1.344.37Z" fill="#f96"/>
    <path id="Path_9" data-name="Path 9" d="M90.566,55.859q-10.556,5.3-21.207,10.4a.816.816,0,0,1-.961-.191,24.321,24.321,0,0,1-3.1-5.118c-.423-.948,1.026-1.662,1.452-.708A22.555,22.555,0,0,0,69.608,65l-.961-.191q10.652-5.1,21.207-10.4a.808.808,0,0,1,.709,1.452Z" fill="#fed983"/>
    <path id="Path_10" data-name="Path 10" d="M103.749,56.2q-6.779,4.826-13.691,9.454c-1.411.946-3.242,2.882-5.087,2.2-1.983-.737-3.856-2.819-5.126-4.413-.642-.808.494-1.958,1.143-1.143,1.041,1.309,3.457,4.477,5.366,3.88a12.415,12.415,0,0,0,2.6-1.725q1.439-.963,2.879-1.933,5.6-3.789,11.1-7.715C103.784,54.2,104.592,55.6,103.749,56.2Z" fill="#fed983"/>
    <path id="Path_11" data-name="Path 11" d="M83.8,26.885a15.763,15.763,0,0,0-6-22.355c-.924-.476-.109-1.873.815-1.4C87.634,7.789,90.393,19.141,85.2,27.7,84.657,28.588,83.256,27.777,83.8,26.885Z" fill="#fed983"/>
    <path id="Path_12" data-name="Path 12" d="M78.339,3.962a25.52,25.52,0,0,0-1.824,2.864c-.5.914-1.9.1-1.4-.815a26.4,26.4,0,0,1,1.824-2.864C77.552,2.314,78.956,3.122,78.339,3.962Z" fill="#fed983"/>
    <path id="Path_13" data-name="Path 13" d="M76.751,3.425a1.749,1.749,0,0,0-.642-1.58,1,1,0,0,0-.353-.219c.268.032.035.12-.1.279-.293.349-.586.695-.878,1.044-.67.8-1.81-.353-1.143-1.143.448-.536.945-1.4,1.595-1.7a1.807,1.807,0,0,1,1.778.4,3.4,3.4,0,0,1,1.3,3.348c-.162,1.027-1.721.589-1.559-.43Z" fill="#fed983"/>
    <path id="Path_14" data-name="Path 14" d="M79.242,29.714A17.384,17.384,0,0,1,70.849,5.708c.49-.917,1.887-.1,1.4.815-4.392,8.223-.522,18.055,7.814,21.791.949.427.127,1.82-.815,1.4Z" fill="#fed983"/>
    <path id="Path_15" data-name="Path 15" d="M72.07,4.787a28.3,28.3,0,0,1,3.32,1.408c.931.469.113,1.863-.815,1.4a25.216,25.216,0,0,0-2.932-1.245c-1.005-.353-.557-1.9.43-1.559Z" fill="#fed983"/>
    <path id="Path_16" data-name="Path 16" d="M71.424,6.149a3.4,3.4,0,0,1-.762-3.489,1.814,1.814,0,0,1,1.178-1.281,5.779,5.779,0,0,1,2.392.5.809.809,0,0,1-.43,1.559c-.4-.109-.8-.222-1.2-.332-.12-.032-.24-.067-.36-.1-.176-.032-.159-.049.049-.053-.049.134-.123.25-.162.392a1.748,1.748,0,0,0,.43,1.658c.716.755-.423,1.9-1.143,1.143Z" fill="#fed983"/>
  </g>
</svg>
