<svg xmlns="http://www.w3.org/2000/svg" xmlns:xlink="http://www.w3.org/1999/xlink" width="379.681" height="220.718" viewBox="0 0 379.681 220.718">
  <defs>
    <clipPath id="clip-path">
      <rect id="Rectangle_2" data-name="Rectangle 2" width="105" height="75.479" transform="translate(36 0.521)" fill="#fff"/>
    </clipPath>
  </defs>
  <g id="Group_4" data-name="Group 4" transform="translate(190 -0.521)">
    <path id="Path_17" data-name="Path 17" d="M-100.3,87.281c-5.527,4.517-14.125,5.661-20.968,3.627a30.075,30.075,0,0,0-8.581-1.242,30.074,30.074,0,0,0-30.073,30.074c0,6.941-3.338,14.6-9.19,18.328A45.075,45.075,0,0,0-190,176.128a45.115,45.115,0,0,0,41.278,44.95.081.081,0,0,1,.074.08.08.08,0,0,0,.08.08H143.95a.62.62,0,0,0,.621-.62.627.627,0,0,1,.5-.611,56.395,56.395,0,0,0-11.776-111.545,1.125,1.125,0,0,1-1.092-1.368A45.15,45.15,0,0,0,80.552,52.716a15.537,15.537,0,0,1-14.69-5.293A67.685,67.685,0,0,0-50.561,66.4c-2.885,7.879-12.859,12.9-21.215,12.149q-1.762-.158-3.566-.159A39.308,39.308,0,0,0-100.3,87.281Z" fill="#fff" fill-rule="evenodd"/>
    <g id="Group_3" data-name="Group 3" clip-path="url(#clip-path)">
      <path id="Path_18" data-name="Path 18" d="M72.115,5.772A13.308,13.308,0,0,0,60.9,20.88l5.252,35.563,35.564-5.252A13.307,13.307,0,0,0,112.93,36.084L107.678.521Z" fill="#ed6457"/>
      <path id="Path_19" data-name="Path 19" d="M91.789,20.529a6.8,6.8,0,0,1,4.365-5.507c3.163-1.133,4.753,1.1,6.07,3.583.738,1.391,2.849.156,2.111-1.233-1.853-3.493-4.589-6.151-8.829-4.7a9.31,9.31,0,0,0-6.158,7.864c-.181,1.56,2.266,1.547,2.444,0Z" fill="#933"/>
      <path id="Path_20" data-name="Path 20" d="M82.752,20.634c-2.1-2.406-5.137-4.343-8.467-3.683-3.484.688-5.382,3.891-6.842,6.818-.7,1.4,1.407,2.643,2.111,1.233,1.077-2.157,2.363-4.881,4.9-5.588s4.962,1.105,6.568,2.945c1.037,1.186,2.761-.548,1.728-1.728Z" fill="#933"/>
      <path id="Path_21" data-name="Path 21" d="M99.158,22.02a4.526,4.526,0,0,0-2.82.94c-.844.688-1.426,2.036-.551,2.936a3.772,3.772,0,0,0,2.908.741,6.831,6.831,0,0,0,3.091-.953c.931-.567,1.93-1.619,1.585-2.774-.371-1.239-1.943-1.329-3.011-1.264a11.282,11.282,0,0,0-3.374.716,2.2,2.2,0,0,0-1.339,1,1.635,1.635,0,0,0,.274,1.728,3.386,3.386,0,0,0,3.4.918,6.242,6.242,0,0,0,2.991-1.921.843.843,0,0,0,.131-1.005,1.4,1.4,0,0,0-1.476-.554,7.5,7.5,0,0,0-1.5.336,8.131,8.131,0,0,0-1.395.623c-.529.3-1.065.672-1,1.36.125,1.3,1.837,1.009,2.665.716.971-.343,2.213-1.006,2.257-2.17a.848.848,0,0,0-.831-.831,4.277,4.277,0,0,0-3.029.99.842.842,0,0,0,0,1.174.935.935,0,0,0,.971.262.832.832,0,0,0-.442-1.6L98.6,23.4h.442l-.059-.019.367.215-.04-.047v1.174a2.584,2.584,0,0,1,1.853-.5l-.831-.831c0-.093.074-.09-.047-.006-.084.059-.143.121-.24.184a3.94,3.94,0,0,1-.6.333,3.627,3.627,0,0,1-.763.221c-.1.019-.193.009-.305.037-.1,0-.093,0,.006.015a.665.665,0,0,1,.311.339v.442a1.491,1.491,0,0,1-.152.193s.171-.109.184-.118c.14-.087.283-.165.43-.243a5.6,5.6,0,0,1,.757-.324,7.181,7.181,0,0,1,.844-.23c.124-.025.258-.053.374-.065a1.525,1.525,0,0,0,.171-.013c.05,0,.053,0,.006-.006a.407.407,0,0,1-.3-.227l.131-1.006A5.619,5.619,0,0,1,99.5,24.193a2.452,2.452,0,0,1-1.728.184,1.606,1.606,0,0,1-.352-.153.648.648,0,0,1-.209-.171c-.019-.025-.09-.193-.05-.081v.056c.006-.112,0-.112-.022,0-.078.177-.04.059.012.05-.081.015.109-.047.14-.062-.131.062.218-.087.19-.075.075-.028.146-.056.221-.081.2-.072.411-.137.616-.2a11.319,11.319,0,0,1,1.208-.271,4.511,4.511,0,0,1,2.2.012c-.124-.05.141.05.125.069-.028.034-.09-.143-.075-.125l-.018-.072c.009.106.006.134-.007.084-.121.286.041-.053-.034.112a1.6,1.6,0,0,1-.495.585,4.871,4.871,0,0,1-3.907.828.681.681,0,0,1-.314-.121c.143.084-.143-.05.006.028-.112-.059-.006-.084-.012,0a1.123,1.123,0,0,1,.439-.61c-.084.069.062-.044.081-.056a2.354,2.354,0,0,1,.271-.159,1.6,1.6,0,0,1,.165-.078c-.056.025-.037.022.056-.019.059-.022.115-.041.174-.056a2.97,2.97,0,0,1,.965-.14.832.832,0,0,0,0-1.662Z" fill="#933"/>
      <path id="Path_22" data-name="Path 22" d="M74.157,27a3.273,3.273,0,0,0-2.512.274,1.206,1.206,0,0,0-.031,2.176,4.207,4.207,0,0,0,2.54.162,5.9,5.9,0,0,0,1.127-.3,3.348,3.348,0,0,0,1.23-.654,1.056,1.056,0,0,0,.022-1.472,2.25,2.25,0,0,0-1.258-.554,5.756,5.756,0,0,0-2.7.28,3.139,3.139,0,0,0-2.03,1.3,1.4,1.4,0,0,0,1.174,2,5.7,5.7,0,0,0,4.956-1.728.824.824,0,0,0,.215-.809c-.339-.847-1.105-.844-1.9-.806a15.318,15.318,0,0,0-2.1.252,13.99,13.99,0,0,0-2.086.567A3.266,3.266,0,0,0,69,28.746a1.272,1.272,0,0,0,.676,1.9,5.454,5.454,0,0,0,2.188.121,16.038,16.038,0,0,0,2.235-.408,4.186,4.186,0,0,0,1.874-.766,1.292,1.292,0,0,0,.134-1.918,2.756,2.756,0,0,0-1.918-.47,9.507,9.507,0,0,0-2.139.243,5.978,5.978,0,0,0-1.921.7,1.355,1.355,0,0,0-.221,2.1,2.761,2.761,0,0,0,1.964.71,8.71,8.71,0,0,0,4.224-.837,1.211,1.211,0,0,0,.262-2,2.719,2.719,0,0,0-1.715-.735,10.455,10.455,0,0,0-4.2.436c-.657.2-1.448.42-1.737,1.115a1.545,1.545,0,0,0,.837,1.877,4.4,4.4,0,0,0,2.036.417,7.95,7.95,0,0,0,2.151-.255c1.273-.333,2.711-1.4,2.257-2.914s-2.07-1.675-3.362-1.581a5.935,5.935,0,0,0-1.967.448,2.527,2.527,0,0,0-1.5,1.37c-.482,1.522,1.712,2.276,2.814,2.472a8.007,8.007,0,0,0,3.982-.3,2.468,2.468,0,0,0,1.6-1.348,1.63,1.63,0,0,0-.486-1.915A3.075,3.075,0,0,0,75,26.686a18.429,18.429,0,0,0-2.03.1c-1.214.149-3.178.486-3.574,1.877a1.5,1.5,0,0,0,.654,1.718.831.831,0,0,0,.837-1.435c.031.019.181.237.075.237-.062,0,.068-.1.084-.118a1.212,1.212,0,0,1,.3-.174,5.256,5.256,0,0,1,1.522-.426,11.468,11.468,0,0,1,1.476-.106c.262-.006.523-.009.785-.012a1.925,1.925,0,0,1,.766.068c-.065-.028.125.056.069.031.168.075.056.1.053.04a.539.539,0,0,1-.131.187,3.062,3.062,0,0,1-1.342.445,5.811,5.811,0,0,1-2.736-.09,5.286,5.286,0,0,1-1.093-.514c.034-.037.069.436-.025.349a1.962,1.962,0,0,1,.187-.168,2.362,2.362,0,0,1,.626-.33,4.317,4.317,0,0,1,1.286-.233,2.633,2.633,0,0,1,1.342.143c.224.125.308.249.218.461a1.268,1.268,0,0,1-.85.576,5.861,5.861,0,0,1-1.463.252,4.09,4.09,0,0,1-1.553-.14c-.125-.047-.093-.059-.215-.106a.464.464,0,0,1-.087-.087.329.329,0,0,1-.037.451,5.9,5.9,0,0,0,.591-.218,10.152,10.152,0,0,1,1.768-.4,9.534,9.534,0,0,1,1.865-.05c.358.028.7.093.844.383l-.112-.42c-.062-.523.349-.33.1-.28a1.234,1.234,0,0,0-.177.068c-.168.062-.339.121-.514.174a8.675,8.675,0,0,1-1.055.252,5.605,5.605,0,0,1-1.986.053,3.122,3.122,0,0,0-.314-.106c-.047.009-.121.349-.106.371s.682-.255.784-.286a7.58,7.58,0,0,1,2.076-.352,6.287,6.287,0,0,1,1,.031c.1.012.019.04.065.016.109-.062-.034.056-.006-.025-.006.015-.115-.539-.112-.539s-.078.053-.068.05c-.582.187-1.208.377-1.83.511a8.343,8.343,0,0,1-2.151.221,2.787,2.787,0,0,0-.476-.041l-.112-.022.224.4s-.053.159-.05.162c.025.022.732-.308.791-.33a13.869,13.869,0,0,1,2.347-.626,10.374,10.374,0,0,1,1.121-.134c.2-.016.4-.025.607-.031.09,0,.181,0,.271-.006.215-.012.075.031-.059-.106l-.215-.367.031.075L75.5,27.3a4.094,4.094,0,0,1-2.587,1.292,7.785,7.785,0,0,1-.946-.028c-.047,0-.087-.013-.078-.022.084-.078.156.423.134.411a2.539,2.539,0,0,1,.268-.171,6.481,6.481,0,0,1,1.043-.367,4.431,4.431,0,0,1,1.139-.19c.24,0,.785.012.912.174l-.215-.367.022.093v-.442c.187-.205.218-.271.09-.19-.056.031-.115.062-.171.09-.093.047-.177.084-.277.125a5.444,5.444,0,0,1-.616.2,4.721,4.721,0,0,1-1.385.137,2.815,2.815,0,0,1-.324-.022s-.137,0-.059-.006l-.078-.044c.2.308.221.563.059.766a1.437,1.437,0,0,0,.218-.112,1.622,1.622,0,0,1,1.065-.025.832.832,0,0,0,.442-1.6Z" fill="#933"/>
      <path id="Path_23" data-name="Path 23" d="M80.479,28.539a9.47,9.47,0,0,0,13.034-2.6c.912-1.286-1.208-2.509-2.111-1.233a7,7,0,0,1-9.691,1.718C80.389,25.566,79.163,27.683,80.479,28.539Z" fill="#933"/>
      <path id="Path_24" data-name="Path 24" d="M103.753,33.778q12.542-7.448,24.985-15.061,3.489-2.134,6.97-4.283a1.4,1.4,0,0,0,.5-1.883,1.382,1.382,0,0,0-1.883-.495q-12.413,7.663-24.929,15.154-3.513,2.1-7.027,4.19a1.377,1.377,0,1,0,1.389,2.378Z" fill="#ed6457"/>
      <path id="Path_25" data-name="Path 25" d="M136.574,13.565c.243-1.08.482-2.161.725-3.241a1.45,1.45,0,0,0-.14-1.062,1.377,1.377,0,0,0-2.515.33q-.364,1.62-.726,3.241a1.455,1.455,0,0,0,.14,1.061,1.378,1.378,0,0,0,2.516-.33Z" fill="#ed6457"/>
      <path id="Path_26" data-name="Path 26" d="M135.783,14.614q2.1-.626,4.2-1.248a1.377,1.377,0,0,0-.732-2.655q-2.1.626-4.2,1.248a1.377,1.377,0,0,0,.731,2.655Z" fill="#ed6457"/>
      <path id="Path_27" data-name="Path 27" d="M135.235,14.962a8.894,8.894,0,0,0,2.453,1.276,1.061,1.061,0,0,0,.548.025,1.025,1.025,0,0,0,.51-.162,1.375,1.375,0,0,0,.492-1.883l-.214-.28a1.372,1.372,0,0,0-.607-.355c-.156-.053-.309-.112-.461-.174l.33.14a7.786,7.786,0,0,1-1.666-.962,1.544,1.544,0,0,0-1.058-.137,1.379,1.379,0,0,0-.962,1.694l.14.33a1.39,1.39,0,0,0,.495.495Z" fill="#ed6457"/>
      <path id="Path_28" data-name="Path 28" d="M72.569,41.719Q60.489,33.543,48.3,25.525q-3.418-2.246-6.846-4.483a1.387,1.387,0,0,0-1.883.495,1.4,1.4,0,0,0,.5,1.883q12.22,7.971,24.328,16.1,3.395,2.279,6.783,4.573a1.384,1.384,0,0,0,1.883-.495,1.411,1.411,0,0,0-.5-1.883Z" fill="#ed6457"/>
      <path id="Path_29" data-name="Path 29" d="M40.256,20.716q-1.62.364-3.241.725a1.388,1.388,0,0,0-.962,1.693,1.409,1.409,0,0,0,1.693.962q1.62-.364,3.241-.725a1.388,1.388,0,0,0,.962-1.694A1.409,1.409,0,0,0,40.256,20.716Z" fill="#ed6457"/>
      <path id="Path_30" data-name="Path 30" d="M41.6,20.877q-1.457-1.634-2.917-3.266a1.375,1.375,0,0,0-1.949,0,1.411,1.411,0,0,0-.4.974,1.511,1.511,0,0,0,.4.974q1.457,1.634,2.917,3.265a1.375,1.375,0,0,0,1.949,0,1.41,1.41,0,0,0,.4-.974A1.511,1.511,0,0,0,41.6,20.877Z" fill="#ed6457"/>
      <path id="Path_31" data-name="Path 31" d="M42.18,21.543a9.03,9.03,0,0,0,.174-2.774,1.533,1.533,0,0,0-.4-.971A1.376,1.376,0,0,0,40,17.8a1.343,1.343,0,0,0-.4.974,7.842,7.842,0,0,1-.022,1.812l.05-.367q-.042.3-.1.6a1.464,1.464,0,0,0,.14,1.062,1.375,1.375,0,0,0,1.883.492,1.371,1.371,0,0,0,.632-.822Z" fill="#ed6457"/>
      <path id="Path_32" data-name="Path 32" d="M86.883,53.427c1.248.072,2.493.171,3.736.311.3.034.595.069.894.109l.115.015.115.016.52.075q.925.14,1.846.318c1.2.233,2.4.514,3.577.865.517.153,1.03.321,1.535.507q.182.065.364.14c.059.025.121.047.181.072.009,0,.205.087.075.031l.072.031c.059.025.118.053.178.078.137.062.273.128.407.193a12.961,12.961,0,0,1,1.392.791c.106.069.212.14.317.215l.156.112c.009.006.178.131.065.047s.053.044.063.05c.05.04.1.081.146.121.115.1.227.193.336.3.2.187.4.383.582.585.084.09.162.184.243.28.041.047.078.1.115.143-.087-.106-.056-.078.01.013a10.219,10.219,0,0,1,.8,1.3c.056.109.109.221.162.33.025.05.152.346.106.23s.071.184.09.237c.05.134.1.271.143.408a11.635,11.635,0,0,1,.386,1.5c.022.121.044.243.062.367.01.062.019.121.028.184,0-.022-.021-.221-.009-.059.022.268.053.535.069.8a13.779,13.779,0,0,1-.013,1.6c-.012.162-.025.324-.04.486-.007.069-.016.137-.022.209,0,.025-.038.286-.019.162.022-.14-.015.087-.015.093-.016.09-.028.184-.047.274-.028.159-.059.318-.09.479a17.993,17.993,0,0,1-.5,1.887q-.15.467-.318.924c-.09.246-.265.688-.317.813s-.246.554-.358.794c-.15.317-.3.629-.461.94a1.393,1.393,0,0,0,.822,2.023c3.623.545,7.266.946,10.923,1.18a1.385,1.385,0,0,0,1.376-1.376,1.407,1.407,0,0,0-1.376-1.376q-2.61-.168-5.214-.442c-.841-.09-1.684-.187-2.522-.3-.507-.065-.641-.084-1.083-.143s-.915-.131-1.37-.2l.822,2.023c2.223-4.358,3.6-9.6,1.659-14.323a11.305,11.305,0,0,0-4.644-5.466,22.707,22.707,0,0,0-6.939-2.537,57.008,57.008,0,0,0-9.127-1.183,1.382,1.382,0,0,0-1.376,1.376,1.405,1.405,0,0,0,1.376,1.376Z" fill="#ed6457"/>
      <path id="Path_33" data-name="Path 33" d="M69.45,53.427c1.248.072,2.494.171,3.736.311.3.034.595.069.893.109l.115.015.115.016.52.075q.925.14,1.846.318c1.2.233,2.4.514,3.577.865.517.153,1.03.321,1.535.507q.182.065.364.14c.059.025.121.047.181.072.009,0,.205.087.075.031l.072.031c.059.025.118.053.177.078.137.062.274.128.408.193a13.021,13.021,0,0,1,1.392.791q.159.1.317.215l.156.112c.009.006.177.131.065.047s.053.044.062.05c.05.04.1.081.146.121.115.1.227.193.336.3.2.187.4.383.582.585.084.09.162.184.243.28.041.047.078.1.115.143-.087-.106-.056-.078.009.013a10.176,10.176,0,0,1,.8,1.3c.056.109.109.221.162.33.025.05.152.346.106.23s.072.184.09.237c.05.134.1.271.143.408a11.734,11.734,0,0,1,.386,1.5c.022.121.044.243.062.367.009.062.019.121.028.184,0-.022-.022-.221-.009-.059.022.268.053.535.068.8a13.711,13.711,0,0,1-.012,1.6c-.013.162-.025.324-.041.486-.006.069-.015.137-.022.209,0,.025-.037.286-.019.162.022-.14-.016.087-.016.093-.016.09-.028.184-.047.274-.028.159-.059.318-.09.479a17.85,17.85,0,0,1-.5,1.887q-.149.467-.317.924c-.09.246-.265.688-.318.813s-.246.554-.358.794c-.149.317-.3.629-.461.94a1.393,1.393,0,0,0,.822,2.023c3.624.545,7.266.946,10.924,1.18a1.384,1.384,0,0,0,1.376-1.376,1.407,1.407,0,0,0-1.376-1.376q-2.61-.168-5.214-.442c-.84-.09-1.684-.187-2.521-.3-.507-.065-.641-.084-1.083-.143s-.915-.131-1.37-.2l.822,2.023c2.223-4.358,3.6-9.6,1.659-14.323a11.306,11.306,0,0,0-4.645-5.466,22.7,22.7,0,0,0-6.939-2.537,57.007,57.007,0,0,0-9.127-1.183,1.383,1.383,0,0,0-1.376,1.376A1.405,1.405,0,0,0,69.46,53.44Z" fill="#ed6457"/>
    </g>
  </g>
</svg>
